<?xml version="1.0" encoding="UTF-8" standalone="no"?><!DOCTYPE svg PUBLIC "-//W3C//DTD SVG 1.1//EN" "http://www.w3.org/Graphics/SVG/1.1/DTD/svg11.dtd"><svg width="100%" height="100%" viewBox="0 0 14 24" version="1.1" xmlns="http://www.w3.org/2000/svg" xmlns:xlink="http://www.w3.org/1999/xlink" xml:space="preserve" style="fill-rule:evenodd;clip-rule:evenodd;stroke-linejoin:round;stroke-miterlimit:1.41421;"><path id="bottom" d="M12.674,12.88c0.229,-0.233 0.689,-1.081 -0.004,-1.758c-0.694,-0.676 -1.509,-0.23 -1.738,0.003c-2.262,2.3 -8.325,8.465 -10.586,10.765c-0.23,0.233 -0.65,1.099 0.005,1.759c0.656,0.66 1.507,0.229 1.737,-0.004c2.261,-2.3 8.324,-8.465 10.586,-10.765Z" style="fill:#fff;"/><path id="top" d="M12.674,11.12c0.229,0.233 0.689,1.081 -0.004,1.758c-0.694,0.676 -1.509,0.23 -1.738,-0.003c-2.262,-2.3 -8.325,-8.465 -10.586,-10.765c-0.23,-0.233 -0.65,-1.099 0.005,-1.759c0.656,-0.66 1.507,-0.229 1.737,0.004c2.261,2.3 8.324,8.465 10.586,10.765Z" style="fill:#fff;"/></svg>