<?xml version="1.0" encoding="UTF-8" standalone="no"?><!DOCTYPE svg PUBLIC "-//W3C//DTD SVG 1.1//EN" "http://www.w3.org/Graphics/SVG/1.1/DTD/svg11.dtd"><svg width="100%" height="100%" viewBox="0 0 24 16" version="1.1" xmlns="http://www.w3.org/2000/svg" xmlns:xlink="http://www.w3.org/1999/xlink" xml:space="preserve" style="fill-rule:evenodd;clip-rule:evenodd;stroke-linejoin:round;stroke-miterlimit:1.41421;"><path d="M21.139,7.007l-5.774,-5.574l1.383,-1.433c0,0 6.024,5.815 7.091,6.846c0.103,0.099 0.161,0.236 0.161,0.379c0,0.384 -0.001,1.166 -0.001,1.55c0,0.142 -0.058,0.279 -0.16,0.378c-1.067,1.03 -7.091,6.847 -7.091,6.847l-1.383,-1.433l5.769,-5.569l-14.741,0c-2.464,0 -4.371,1.975 -4.371,4.402c0,0.568 -0.007,1.631 -0.007,1.631l-1.991,-0.007c0,0 -0.024,-1.068 -0.024,-1.624c0,-3.494 2.759,-6.34 6.294,-6.392l14.845,-0.001Z"/></svg>