<?xml version="1.0" encoding="UTF-8" standalone="no"?><!DOCTYPE svg PUBLIC "-//W3C//DTD SVG 1.1//EN" "http://www.w3.org/Graphics/SVG/1.1/DTD/svg11.dtd"><svg width="100%" height="100%" viewBox="0 0 22 19" version="1.1" xmlns="http://www.w3.org/2000/svg" xmlns:xlink="http://www.w3.org/1999/xlink" xml:space="preserve" style="fill-rule:evenodd;clip-rule:evenodd;stroke-linejoin:round;stroke-miterlimit:1.41421;"><path d="M11.063,2.359c1.759,-3.047 6.942,-2.914 9.267,-0.9c2.325,2.014 2.153,4.839 -0.086,7.904c-2.026,2.773 -9.301,9.637 -9.301,9.637c0,0 -7.143,-6.965 -9.301,-9.637c-2.169,-2.686 -2.239,-5.89 0.086,-7.904c2.326,-2.014 7.546,-2.13 9.335,0.9Z"/><path d="M11.028,4.381c1.062,-3.517 6.438,-4.164 8.705,-2.02c1.785,1.689 1.631,3.786 -0.303,6.434c-1.75,2.394 -8.479,8.91 -8.479,8.91c0,0 -6.579,-6.622 -8.442,-8.93c-1.874,-2.32 -2.021,-4.496 -0.167,-6.398c2.06,-2.112 7.691,-1.485 8.686,2.004Z" style="fill:#fff;"/></svg>